<svg width="128" height="128" viewBox="0 0 128 128" fill="none" xmlns="http://www.w3.org/2000/svg">
<circle cx="64" cy="64" r="64" fill="#1F4F7C"/>
<path d="M38.2341 38.2339H51.2148L51.2148 31.7598H31.76L31.76 51.1822H38.2341L38.2341 38.2339ZM38.2341 77.0787H31.76L31.76 96.5011H51.2148L51.2148 90.027H38.2341L38.2341 77.0787ZM90.0272 90.027H77.079L77.079 96.5011H96.5014L96.5014 77.0787H90.0272L90.0272 90.027ZM77.079 38.2339H90.0272L90.0272 51.1822H96.5014L96.5014 31.7598H77.079L77.079 38.2339Z" fill="white"/>
<path d="M41.4712 60.8934H60.8936L60.8936 41.471H41.4712L41.4712 60.8934ZM47.9453 47.9451H54.4195L54.4195 54.4193H47.9453L47.9453 47.9451ZM41.4712 86.79H60.8936L60.8936 67.3675H41.4712L41.4712 86.79ZM47.9453 73.8417H54.4195L54.4195 80.3158H47.9453L47.9453 73.8417ZM86.7901 41.471H67.3677L67.3677 60.8934H86.7901L86.7901 41.471ZM80.316 54.4193H73.8419L73.8419 47.9451H80.316L80.316 54.4193ZM67.4001 67.3675H73.8742L73.8742 73.8417H67.4001L67.4001 67.3675ZM73.8742 73.8417H80.3484L80.3484 80.3158H73.8742L73.8742 73.8417ZM80.3484 80.3158H86.8225L86.8225 86.79H80.3484L80.3484 80.3158ZM80.3484 67.3675H86.8225L86.8225 73.8417H80.3484L80.3484 67.3675Z" fill="white"/>
</svg>
