<svg width="350" height="350" viewBox="0 0 350 350" fill="none" xmlns="http://www.w3.org/2000/svg">
<circle cx="175" cy="175" r="175" fill="#1F4F7C"/>
<path d="M194.906 330.849L101.906 314.451C87.9575 311.991 78.6101 298.642 81.0698 284.693L124.42 38.8432C126.879 24.8943 140.229 15.547 154.177 18.0066L247.178 34.405C261.126 36.8645 270.473 50.2139 268.014 64.1627C252.337 163.194 235.795 274.271 224.664 310.012C222.204 323.961 208.855 333.309 194.906 330.849V330.849Z" fill="#3F3D56"/>
<path d="M257.826 129.526C257.236 129.422 256.671 129.817 256.567 130.407L250.528 164.653C250.424 165.244 250.82 165.808 251.41 165.912C252 166.016 252.565 165.621 252.669 165.031L258.707 130.785C258.811 130.194 258.416 129.63 257.826 129.526Z" fill="#3F3D56"/>
<path d="M265.606 63.7384L222.257 309.583C220.116 321.725 208.915 329.99 196.831 328.654L196.825 328.653C196.647 328.632 196.468 328.612 196.285 328.585C195.967 328.545 195.65 328.495 195.329 328.438C195.329 328.438 194.167 328.145 192.044 327.605C189.9 327.062 186.78 326.263 182.892 325.252C181.726 324.953 180.497 324.631 179.199 324.292C176.615 323.616 173.778 322.873 170.737 322.061C169.525 321.742 168.271 321.405 166.99 321.064C160.445 319.319 153.12 317.338 145.404 315.194C144.099 314.837 142.784 314.473 141.459 314.101C141.112 314.001 82.9729 287.981 83.4786 285.113L126.828 39.268C129.057 26.6237 141.111 18.1834 153.756 20.4129L167.422 22.8227C169.605 23.2076 171.06 25.2187 170.864 27.4296C170.854 27.5769 170.845 27.7242 170.846 27.8734C170.856 30.1318 172.594 32.0106 174.82 32.4031L222.856 40.8733C225.082 41.2658 227.358 40.0946 228.14 37.9758C228.192 37.8361 228.233 37.6944 228.275 37.5528C228.846 35.408 230.901 34.0158 233.085 34.4008L246.751 36.8105C259.395 39.0401 267.836 51.094 265.606 63.7384V63.7384Z" fill="white"/>
<path d="M116.929 78.1985C116.338 78.0944 115.774 78.4898 115.67 79.08L114.16 87.6415C114.056 88.2318 114.451 88.7963 115.042 88.9004C115.632 89.0045 116.196 88.6092 116.3 88.0189L117.81 79.4574C117.914 78.8672 117.519 78.3026 116.929 78.1985Z" fill="#3F3D56"/>
<path d="M112.4 103.883C111.809 103.779 111.245 104.174 111.141 104.765L108.216 121.353C108.112 121.943 108.507 122.507 109.097 122.612C109.688 122.716 110.252 122.32 110.356 121.73L113.281 105.142C113.385 104.552 112.99 103.987 112.4 103.883Z" fill="#3F3D56"/>
<path d="M108.248 127.427C107.658 127.323 107.093 127.719 106.989 128.309L104.064 144.897C103.96 145.487 104.356 146.052 104.946 146.156C105.536 146.26 106.101 145.865 106.205 145.274L109.13 128.686C109.234 128.096 108.838 127.531 108.248 127.427Z" fill="#3F3D56"/>
<path d="M166.389 26.5048L145.922 22.896C145.811 22.8764 145.705 22.9506 145.686 23.0617L145.285 25.3348C145.265 25.4459 145.339 25.5519 145.45 25.5715L165.917 29.1803C166.028 29.1998 166.134 29.1257 166.153 29.0146L166.554 26.7414C166.574 26.6303 166.5 26.5244 166.389 26.5048Z" fill="#E6E6E6"/>
<path d="M235.334 41.4203C236.516 41.6288 237.643 40.8395 237.852 39.6574C238.06 38.4752 237.271 37.348 236.089 37.1396C234.906 36.9311 233.779 37.7204 233.571 38.9025C233.362 40.0846 234.152 41.2119 235.334 41.4203Z" fill="#E6E6E6"/>
<path d="M241.22 42.4582C242.402 42.6666 243.529 41.8773 243.738 40.6952C243.946 39.5131 243.157 38.3859 241.975 38.1774C240.792 37.969 239.665 38.7583 239.457 39.9404C239.248 41.1225 240.038 42.2498 241.22 42.4582Z" fill="#E6E6E6"/>
<path d="M247.106 43.4961C248.288 43.7045 249.415 42.9152 249.624 41.7331C249.832 40.551 249.043 39.4237 247.861 39.2153C246.679 39.0069 245.551 39.7962 245.343 40.9783C245.134 42.1604 245.924 43.2876 247.106 43.4961Z" fill="#E6E6E6"/>
<path d="M214.617 231.73C218.919 207.333 200.665 190.275 178.231 179.766C149.469 166.291 124.444 178.882 126.267 216.151C127.477 240.895 148.653 281.238 163.796 261.631C181.124 239.196 210.315 256.127 214.617 231.73Z" fill="#F2F2F2"/>
<path d="M175.735 247.789L136.397 240.853C134.729 240.559 133.628 238.865 133.943 237.077C134.258 235.29 135.872 234.075 137.54 234.369L176.878 241.305C178.547 241.599 179.648 243.293 179.333 245.081C179.017 246.868 177.403 248.083 175.735 247.789Z" fill="#3F3D56"/>
<path d="M156.027 216.908L151.137 213.44C152.787 216.88 153.832 221.983 154.172 225.957C156.505 222.723 160.024 218.882 163.208 216.778L157.312 217.235C163.79 200.815 179.018 190.892 193.987 193.531L194.308 192.954C178.672 190.197 162.7 199.814 156.027 216.908V216.908Z" fill="#3F3D56"/>
<path d="M231.235 118.326L219.116 187.059C218.044 193.138 212.227 197.21 206.149 196.139L137.416 184.019C131.337 182.947 127.264 177.131 128.336 171.052L140.456 102.319C141.527 96.241 147.344 92.1681 153.423 93.2398L222.156 105.359C228.234 106.431 232.307 112.248 231.235 118.326ZM206.377 194.842C211.749 195.789 216.872 192.202 217.819 186.831L223.929 152.178C228.195 127.984 212.04 104.913 187.846 100.647L153.194 94.5367C147.822 93.5895 142.7 97.1763 141.753 102.548L129.633 171.281C128.686 176.653 132.273 181.775 137.644 182.722L206.377 194.842V194.842Z" fill="#3F3D56"/>
<g clip-path="url(#clip0_4_84)">
<path d="M160.366 116.934L172.283 119.035L173.331 113.091L155.47 109.942L152.326 127.774L158.269 128.822L160.366 116.934ZM154.077 152.597L148.133 151.549L144.989 169.381L162.85 172.53L163.899 166.586L151.981 164.485L154.077 152.597ZM199.532 172.87L187.644 170.773L186.596 176.717L204.428 179.862L207.572 162.03L201.628 160.982L199.532 172.87ZM196.029 123.222L207.917 125.318L205.821 137.206L211.764 138.254L214.909 120.423L197.077 117.278L196.029 123.222Z" fill="#3F3D56"/>
<path d="M159.669 138.262L177.501 141.406L180.645 123.574L162.813 120.43L159.669 138.262ZM167.709 127.422L173.653 128.47L172.605 134.414L166.661 133.366L167.709 127.422ZM155.477 162.037L173.309 165.181L176.453 147.35L158.621 144.205L155.477 162.037ZM163.517 151.197L169.461 152.245L168.413 158.189L162.469 157.141L163.517 151.197ZM204.421 127.766L186.589 124.622L183.445 142.454L201.276 145.598L204.421 127.766ZM196.381 138.606L190.437 137.558L191.485 131.614L197.429 132.662L196.381 138.606ZM182.426 148.403L188.37 149.451L187.322 155.395L181.378 154.347L182.426 148.403ZM187.322 155.395L193.266 156.443L192.218 162.387L186.274 161.339L187.322 155.395ZM192.218 162.387L198.162 163.435L197.114 169.379L191.17 168.331L192.218 162.387ZM194.314 150.499L200.258 151.547L199.21 157.491L193.266 156.443L194.314 150.499Z" fill="#3F3D56"/>
</g>
<defs>
<clipPath id="clip0_4_84">
<rect width="72.427" height="72.427" fill="white" transform="translate(150.574 102.95) rotate(10)"/>
</clipPath>
</defs>
</svg>
